<?xml version="1.0" standalone="no"?>
<!DOCTYPE svg PUBLIC "-//W3C//DTD SVG 20010904//EN"
 "http://www.w3.org/TR/2001/REC-SVG-20010904/DTD/svg10.dtd">
<svg version="1.0" xmlns="http://www.w3.org/2000/svg"
 width="3264.000000pt" height="725.000000pt" viewBox="0 0 3264.000000 725.000000"
 preserveAspectRatio="xMidYMid meet">

<g transform="translate(0.000000,725.000000) scale(0.100000,-0.100000)"
fill="#000000" stroke="none">
<path d="M12646 4844 c-3 -9 -6 -162 -6 -340 l0 -324 -52 35 c-78 51 -158 76
-268 82 -163 9 -278 -30 -388 -132 -105 -97 -172 -222 -208 -387 -19 -90 -22
-335 -5 -428 38 -197 141 -371 272 -459 91 -61 172 -83 299 -83 126 0 206 22
299 82 34 22 64 40 66 40 3 0 5 -14 5 -31 0 -65 7 -69 144 -69 104 0 125 3
130 16 8 20 8 1978 0 1998 -5 14 -28 16 -144 16 -116 0 -139 -2 -144 -16z
m-153 -828 c32 -15 75 -48 102 -78 l45 -50 0 -330 0 -330 -31 -43 c-61 -86
-147 -125 -268 -125 -143 0 -224 50 -282 174 -41 88 -59 182 -59 316 0 231 69
403 184 462 65 33 86 38 172 35 64 -3 93 -9 137 -31z"/>
<path d="M19907 4854 c-4 -4 -7 -155 -7 -336 0 -182 -4 -328 -9 -328 -5 0 -35
16 -67 35 -77 46 -140 65 -244 72 -109 7 -186 -8 -280 -54 -228 -111 -357
-402 -337 -757 10 -173 49 -307 123 -425 121 -190 307 -279 527 -251 98 12
160 34 231 81 32 21 62 39 67 39 4 0 9 -21 11 -47 l3 -48 130 0 130 0 0 1010
0 1010 -136 3 c-74 1 -138 -1 -142 -4z m-203 -818 c63 -19 120 -60 162 -115
l34 -44 0 -322 0 -322 -29 -39 c-70 -96 -133 -128 -262 -132 -82 -3 -104 0
-147 18 -89 39 -150 125 -189 270 -24 90 -24 310 0 400 40 151 119 254 216
284 60 19 156 20 215 2z"/>
<path d="M28056 4844 c-8 -20 -8 -1978 0 -1998 5 -14 28 -16 145 -16 137 0
139 0 140 23 1 28 1 1906 0 1965 l-1 42 -139 0 c-117 0 -140 -2 -145 -16z"/>
<path d="M14754 4766 c-74 -33 -107 -147 -64 -223 32 -58 71 -78 149 -76 98 3
151 52 158 145 7 99 -60 168 -162 168 -27 -1 -64 -7 -81 -14z"/>
<path d="M20580 4758 c-55 -38 -73 -70 -73 -131 0 -72 25 -115 83 -145 37 -19
54 -22 95 -16 67 9 99 26 125 69 46 74 23 173 -50 222 -46 32 -134 32 -180 1z"/>
<path d="M5772 4747 c-9 -11 -11 -241 -10 -963 l3 -949 147 -3 148 -3 2 368 3
368 300 6 c262 5 310 8 377 27 173 47 299 144 363 277 45 97 59 162 58 290 -1
182 -53 307 -179 424 -72 68 -170 119 -279 147 -98 24 -914 34 -933 11z m794
-248 c97 -13 152 -39 203 -94 102 -111 126 -265 63 -408 -31 -71 -89 -124
-163 -152 -49 -18 -79 -20 -329 -20 l-275 0 -3 330 c-1 181 0 336 3 342 6 17
388 18 501 2z"/>
<path d="M23227 4754 c-4 -4 -7 -317 -7 -695 0 -768 1 -786 66 -918 89 -181
294 -307 537 -329 185 -17 332 10 487 89 145 75 236 179 288 333 l27 81 0 720
0 720 -125 3 c-69 1 -135 0 -147 -3 l-23 -5 0 -680 c0 -465 -4 -696 -11 -732
-25 -115 -89 -195 -199 -246 -73 -33 -256 -43 -342 -18 -74 21 -163 82 -199
136 -64 95 -63 76 -69 845 l-5 700 -136 3 c-74 1 -138 -1 -142 -4z"/>
<path d="M26411 4741 c-12 -21 -16 -1865 -5 -1895 5 -14 28 -16 150 -16 l144
0 0 358 c0 196 4 362 8 368 5 9 96 13 307 17 336 5 380 12 518 84 210 111 314
359 262 627 -32 171 -145 320 -298 394 -147 72 -169 75 -649 79 -419 4 -427 4
-437 -16z m796 -242 c141 -19 210 -68 267 -188 27 -58 31 -77 31 -151 0 -108
-22 -173 -81 -239 -31 -35 -62 -57 -102 -73 -55 -22 -69 -23 -337 -23 l-280 0
-3 320 c-1 176 0 330 3 343 5 22 6 22 214 22 115 0 245 -5 288 -11z"/>
<path d="M7785 4284 c-211 -42 -408 -229 -410 -389 l0 -50 140 0 140 0 5 35
c8 47 23 72 65 109 60 53 99 65 210 65 114 1 158 -16 212 -78 39 -43 51 -83
55 -171 l3 -70 -160 -7 c-88 -4 -193 -12 -234 -18 -260 -41 -423 -171 -461
-368 -59 -295 154 -534 475 -536 137 0 230 29 343 106 24 17 45 28 47 26 1 -1
9 -25 17 -53 l14 -50 144 0 145 0 -1 35 c0 19 -9 62 -19 95 -15 52 -18 120
-25 520 -6 411 -8 465 -25 510 -54 148 -185 253 -361 290 -85 18 -226 18 -319
-1z m421 -798 c3 -14 4 -73 2 -133 -3 -106 -4 -110 -36 -150 -95 -120 -289
-175 -422 -119 -71 29 -120 107 -120 189 0 121 95 202 264 227 28 4 108 8 178
9 127 1 128 1 134 -23z"/>
<path d="M9220 4293 c-228 -38 -395 -224 -455 -509 -23 -105 -23 -360 -1 -460
52 -239 182 -415 356 -484 151 -60 375 -39 500 45 29 19 54 35 57 35 3 0 4
-37 1 -82 -9 -182 -103 -285 -280 -310 -138 -19 -257 21 -362 122 -34 33 -68
60 -73 60 -19 0 -154 -160 -147 -173 92 -157 350 -268 593 -254 229 13 416
126 502 305 58 121 59 127 59 938 0 667 -2 742 -16 748 -24 9 -217 7 -233 -3
-7 -5 -16 -29 -18 -55 -3 -25 -8 -46 -11 -46 -3 0 -19 11 -36 24 -109 82 -289
124 -436 99z m268 -258 c59 -18 140 -78 171 -128 20 -33 21 -45 21 -351 0
-258 -3 -322 -15 -345 -24 -47 -111 -118 -166 -136 -72 -24 -218 -17 -275 13
-135 70 -215 313 -185 563 33 268 141 396 337 398 33 1 83 -6 112 -14z"/>
<path d="M10725 4284 c-239 -47 -429 -254 -487 -530 -17 -82 -19 -122 -15
-239 6 -151 22 -231 67 -332 109 -242 317 -375 585 -376 121 0 198 15 290 57
131 61 233 166 301 311 58 126 68 181 69 375 0 153 -3 185 -23 254 -74 258
-256 437 -487 481 -93 18 -206 18 -300 -1z m214 -234 c82 -14 127 -37 180 -95
141 -153 174 -484 70 -701 -64 -135 -148 -194 -286 -202 -108 -6 -177 15 -244
75 -194 175 -201 643 -12 837 45 46 101 76 162 86 65 11 60 11 130 0z"/>
<path d="M13671 4289 c-76 -15 -164 -48 -211 -79 -70 -46 -158 -139 -185 -194
-26 -54 -46 -141 -38 -163 4 -10 38 -13 143 -13 148 0 150 1 150 54 0 40 54
102 115 131 107 53 269 42 345 -21 49 -42 72 -97 78 -191 l5 -83 -94 0 c-147
0 -317 -18 -399 -41 -216 -60 -345 -192 -370 -380 -19 -134 18 -255 106 -349
58 -62 108 -96 177 -120 175 -62 370 -41 516 55 30 20 59 37 63 38 5 1 17 -20
26 -48 l17 -50 145 0 145 0 -1 30 c0 17 -9 57 -19 90 -16 53 -19 116 -25 520
-7 500 -6 498 -67 602 -56 96 -185 178 -326 207 -81 17 -223 19 -296 5z m397
-917 l3 -133 -52 -54 c-33 -35 -77 -67 -118 -88 -59 -29 -74 -32 -156 -32 -74
0 -98 4 -138 24 -67 33 -100 85 -105 166 -6 87 20 144 85 185 82 52 169 68
353 66 l125 -1 3 -133z"/>
<path d="M15842 4285 c-72 -16 -151 -51 -201 -89 -19 -14 -38 -23 -42 -20 -5
3 -9 23 -9 44 0 29 -5 42 -19 50 -28 15 -223 13 -244 -2 -16 -12 -17 -64 -15
-723 l3 -710 140 0 140 0 5 520 c6 581 1 548 79 618 55 49 102 68 191 74 133
10 225 -31 273 -121 22 -41 22 -47 24 -546 2 -278 5 -515 8 -528 5 -22 7 -23
143 -20 l137 3 5 495 5 495 26 55 c31 64 76 113 133 143 34 18 58 22 141 22
88 0 107 -3 150 -26 54 -27 89 -70 105 -128 6 -22 10 -231 10 -533 0 -273 3
-503 6 -512 5 -14 28 -16 145 -16 l139 0 0 533 c0 586 -2 607 -62 719 -74 139
-227 218 -423 218 -147 0 -270 -45 -385 -141 l-62 -51 -43 49 c-104 118 -308
170 -503 128z"/>
<path d="M18050 4276 c-94 -28 -161 -63 -226 -118 -183 -153 -264 -370 -251
-674 9 -227 60 -355 192 -490 147 -149 323 -207 557 -183 145 15 233 51 342
142 48 41 126 131 126 147 0 4 -39 38 -87 74 l-86 66 -68 -65 c-40 -39 -91
-77 -126 -93 -53 -24 -69 -27 -173 -27 -102 0 -121 3 -165 25 -66 32 -122 90
-163 167 -32 60 -67 188 -56 205 3 4 212 8 464 8 l459 0 12 22 c14 25 5 205
-16 314 -28 148 -101 291 -191 374 -124 114 -363 161 -544 106z m290 -247 c63
-28 82 -49 125 -140 27 -57 38 -95 39 -132 l1 -52 -314 -3 -314 -2 5 44 c7 56
55 161 98 209 87 99 234 130 360 76z"/>
<path d="M21555 4284 c-211 -42 -405 -225 -409 -388 l-1 -51 140 0 140 0 5 35
c8 47 23 72 65 109 60 52 99 64 210 65 114 1 157 -15 212 -78 39 -44 53 -86
56 -172 l2 -69 -160 -7 c-88 -4 -193 -12 -234 -18 -320 -50 -490 -235 -467
-510 19 -230 216 -391 481 -393 136 -1 230 27 342 104 23 16 44 29 46 29 3 0
8 -12 11 -27 4 -16 12 -40 18 -55 l10 -28 144 0 144 0 0 23 c0 13 -10 59 -21
103 -20 73 -22 112 -28 534 -6 434 -8 458 -28 514 -52 140 -186 245 -358 281
-86 18 -227 18 -320 -1z m423 -905 l3 -125 -35 -46 c-117 -153 -378 -196 -488
-81 -107 112 -61 287 91 344 78 29 147 37 296 35 l130 -1 3 -126z"/>
<path d="M25456 4284 c-69 -17 -147 -54 -198 -95 -20 -16 -41 -29 -46 -29 -6
0 -13 24 -17 53 -4 28 -13 55 -19 59 -15 10 -228 10 -244 0 -10 -7 -12 -158
-10 -723 l3 -714 134 -3 c101 -2 136 1 143 10 4 7 8 238 8 514 l0 501 28 39
c68 94 155 144 263 152 130 9 228 -45 260 -145 9 -27 14 -181 18 -553 l6 -515
137 -3 137 -3 7 25 c3 13 4 255 1 537 -4 549 -6 574 -58 683 -82 175 -322 266
-553 210z"/>
<path d="M30516 4284 c-223 -54 -378 -256 -426 -556 -18 -113 -9 -341 19 -447
56 -214 188 -381 347 -441 163 -61 372 -40 506 50 23 16 47 30 52 30 5 0 6
-35 3 -81 -14 -182 -104 -283 -277 -310 -139 -21 -261 19 -376 124 -35 32 -68
57 -73 55 -16 -5 -141 -152 -141 -165 0 -7 27 -41 60 -76 101 -109 265 -174
460 -184 199 -10 350 44 474 170 76 76 112 137 143 242 16 54 18 131 21 810 3
702 2 750 -14 762 -22 16 -206 18 -235 3 -14 -8 -19 -21 -19 -50 0 -21 -5 -42
-10 -45 -6 -4 -28 7 -49 24 -112 89 -305 124 -465 85z m314 -251 c57 -18 150
-95 175 -144 12 -23 15 -87 15 -337 l0 -309 -31 -47 c-62 -93 -150 -136 -278
-136 -167 0 -243 61 -308 245 -26 75 -28 90 -27 245 0 152 2 171 27 245 45
136 104 205 204 241 53 18 161 17 223 -3z"/>
<path d="M14703 4273 c-10 -4 -13 -158 -13 -724 l0 -720 143 3 142 3 3 710 c2
659 1 711 -15 723 -17 12 -232 17 -260 5z"/>
<path d="M20531 4266 c-8 -9 -10 -207 -9 -722 l3 -709 143 -3 142 -3 0 720 c0
646 -2 719 -16 725 -9 3 -69 6 -134 6 -87 0 -120 -4 -129 -14z"/>
<path d="M28693 4273 c-10 -4 -13 -116 -13 -514 0 -427 3 -522 16 -587 37
-181 132 -291 297 -344 148 -48 415 -12 507 67 31 27 45 22 50 -20 l5 -40 135
0 135 0 3 709 c1 515 -1 713 -9 722 -15 19 -249 20 -267 2 -9 -9 -12 -139 -12
-523 l0 -512 -30 -41 c-65 -90 -158 -132 -292 -132 -88 0 -137 16 -181 58 -63
60 -62 46 -65 617 -2 471 -4 521 -19 533 -17 12 -232 17 -260 5z"/>
</g>
</svg>
